# xmcd CD database file
#
# Track frame offsets:
#	187
#	21192
#	36317
#	51790
#	70247
#	80655
#	102912
#	115130
#	128862
#
# Disc length: 2119 seconds
#
# Revision: 0
# Processed by: cddbd v1.5.1PL0 Copyright (c) Steve Scherf et al.
# Submitted via: cdripper 1.0.7
#
DISCID=78084509
DTITLE=West Albany Street Blues Band - West Albany Street Blues Band
DYEAR=1989
DGENRE=Blues
TTITLE0=Be Where You're At
TTITLE1=Rock and Roll Bands
TTITLE2=Fool On the Hill
TTITLE3=The Hole
TTITLE4=Epilog: Love You to Death
TTITLE5=All That I See
TTITLE6=Luther Blues
TTITLE7=Black Angel
TTITLE8=Freedom
EXTD=YEAR: 1989
EXTT0=
EXTT1=
EXTT2=
EXTT3=
EXTT4=
EXTT5=
EXTT6=
EXTT7=
EXTT8=
PLAYORDER=
